<svg xmlns="http://www.w3.org/2000/svg" version="1.1" width="530" height="290">
	<defs>
		<style type="text/css">
			text { font-family: sans-serif; font-size: 14px; color: #333; }
			text.value { text-anchor: middle; }
			text.unit { text-anchor: middle; font-size: 12px; }
			text.label { text-anchor: middle; }
			text.legend {}
		</style>
	</defs>
	<g transform="translate(10, 10)">
		<g>
			<rect x="0" y="0" width="510" height="1" fill="#ccc"></rect>
			<rect x="0" y="40" width="510" height="1" fill="#ccc"></rect>
			<rect x="0" y="80" width="510" height="1" fill="#ccc"></rect>
			<rect x="0" y="120" width="510" height="1" fill="#ccc"></rect>
			<rect x="0" y="160" width="510" height="1" fill="#ccc"></rect>
			<rect x="0" y="200" width="510" height="1" fill="black"></rect>
		</g>
		<g id="records" transform="translate(10, 0)">
			<rect x="0" y="39" width="40" height="161" style="fill: #3366cc"></rect>
			<text class="value" x="20" y="19">261</text>
			<text class="unit" x="20" y="33">MiB/s</text>
			<rect x="45" y="199" width="40" height="1" style="fill: #dc3912"></rect>
			<text class="value" x="65" y="179">0.50</text>
			<text class="unit" x="65" y="193">MiB</text>
			<text class="label" x="42.5" y ="220">fgets</text>
		</g>
		<g id="records" transform="translate(145, 0)">
			<rect x="0" y="91" width="40" height="109" style="fill: #3366cc"></rect>
			<text class="value" x="20" y="71">176</text>
			<text class="unit" x="20" y="85">MiB/s</text>
			<rect x="45" y="199" width="40" height="1" style="fill: #dc3912"></rect>
			<text class="value" x="65" y="179">0.50</text>
			<text class="unit" x="65" y="193">MiB</text>
			<text class="label" x="42.5" y ="220">stream_get_line</text>
		</g>
		<g id="records" transform="translate(280, 0)">
			<rect x="0" y="124" width="40" height="76" style="fill: #3366cc"></rect>
			<text class="value" x="20" y="104">123</text>
			<text class="unit" x="20" y="118">MiB/s</text>
			<rect x="45" y="199" width="40" height="1" style="fill: #dc3912"></rect>
			<text class="value" x="65" y="179">0.50</text>
			<text class="unit" x="65" y="193">MiB</text>
			<text class="label" x="42.5" y ="220">fgets with rtrim</text>
		</g>
		<g id="records" transform="translate(415, 0)">
			<rect x="0" y="158" width="40" height="42" style="fill: #3366cc"></rect>
			<text class="value" x="20" y="138">68.0</text>
			<text class="unit" x="20" y="152">MiB/s</text>
			<rect x="45" y="199" width="40" height="1" style="fill: #dc3912"></rect>
			<text class="value" x="65" y="179">0.50</text>
			<text class="unit" x="65" y="193">MiB</text>
			<text class="label" x="42.5" y ="220">fscanf</text>
		</g>
		
		<g transform="translate(0, 230)">
			<g id="foo0">
				<rect x="0" y="0" width="14" height="14" style="fill: #3366cc"></rect>
				<text class="legend" x="18" y="12">Throughput in MiByte/s</text>
			</g>
			<g id="foo1">
				<rect x="0" y="20" width="14" height="14" style="fill: #dc3912"></rect>
				<text class="legend" x="18" y="32">Peak memory usage in MiByte</text>
			</g>
		</g>
	</g>
</svg>